<svg width="16" height="16" viewBox="0 0 16 16" fill="none" xmlns="http://www.w3.org/2000/svg">
<path d="M3.18812 5.29295L3.30544 6.03371H3.30544L3.18812 5.29295ZM5.95896 2.5221L6.69973 2.63943V2.63943L5.95896 2.5221ZM12.626 14.0307L12.1851 13.4239L12.626 14.0307ZM13.3634 13.2933L12.7566 12.8524L13.3634 13.2933ZM2.63661 13.2933L3.24337 12.8524L2.63661 13.2933ZM3.37405 14.0307L3.81489 13.4239L3.37405 14.0307ZM3.37405 1.97059L2.93321 1.36383L3.37405 1.97059ZM2.63661 2.70803L2.02985 2.26719L2.63661 2.70803ZM12.626 1.97059L12.1851 2.57736L12.626 1.97059ZM13.3634 2.70803L12.7566 3.14887L13.3634 2.70803ZM6 1.35327L5.97432 0.60371L6 1.35327ZM2.01929 5.33398L1.26973 5.3083L2.01929 5.33398ZM8.75 6.00065C8.75 5.58644 8.41421 5.25065 8 5.25065C7.58579 5.25065 7.25 5.58644 7.25 6.00065H8H8.75ZM11.1994 9.72861C11.4909 9.43441 11.4888 8.95954 11.1946 8.66796C10.9004 8.37638 10.4256 8.37849 10.134 8.67269L10.6667 9.20065L11.1994 9.72861ZM9.73477 10.1409L10.2675 10.6689V10.6689L9.73477 10.1409ZM6.26523 10.1409L6.79792 9.61294V9.61294L6.26523 10.1409ZM5.86602 8.67269C5.57444 8.37849 5.09957 8.37638 4.80537 8.66796C4.51118 8.95954 4.50906 9.43441 4.80064 9.72861L5.33333 9.20065L5.86602 8.67269ZM8.16711 11.3234L8.26194 12.0674H8.26194L8.16711 11.3234ZM7.83289 11.3234L7.73806 12.0674H7.73806L7.83289 11.3234ZM3.18812 5.29295L3.30544 6.03371C5.05267 5.75698 6.42299 4.38665 6.69973 2.63943L5.95896 2.5221L5.21819 2.40477C5.04312 3.51016 4.17618 4.3771 3.07079 4.55218L3.18812 5.29295ZM2 7.33398H1.25V8.66732H2H2.75V7.33398H2ZM14 8.66732H14.75V7.33398H14H13.25V8.66732H14ZM8 14.6673V15.4173C9.2332 15.4173 10.2184 15.4183 11.0026 15.3334C11.8009 15.2469 12.4795 15.0641 13.0668 14.6375L12.626 14.0307L12.1851 13.4239C11.8962 13.6339 11.5117 13.7694 10.841 13.8421C10.1563 13.9163 9.26662 13.9173 8 13.9173V14.6673ZM14 8.66732H13.25C13.25 9.93393 13.249 10.8237 13.1748 11.5084C13.1021 12.179 12.9666 12.5635 12.7566 12.8524L13.3634 13.2933L13.9702 13.7341C14.3968 13.1468 14.5796 12.4682 14.6661 11.6699C14.751 10.8857 14.75 9.90052 14.75 8.66732H14ZM12.626 14.0307L13.0668 14.6375C13.4134 14.3856 13.7183 14.0808 13.9702 13.7341L13.3634 13.2933L12.7566 12.8524C12.5973 13.0717 12.4044 13.2646 12.1851 13.4239L12.626 14.0307ZM2 8.66732H1.25C1.25 9.90052 1.24897 10.8857 1.33394 11.6699C1.42043 12.4682 1.60317 13.1468 2.02985 13.7341L2.63661 13.2933L3.24337 12.8524C3.03344 12.5635 2.89787 12.179 2.82521 11.5084C2.75103 10.8237 2.75 9.93393 2.75 8.66732H2ZM8 14.6673V13.9173C6.73338 13.9173 5.84366 13.9163 5.15896 13.8421C4.48829 13.7694 4.10384 13.6339 3.81489 13.4239L3.37405 14.0307L2.93321 14.6375C3.52048 15.0641 4.19909 15.2469 4.99739 15.3334C5.78165 15.4183 6.7668 15.4173 8 15.4173V14.6673ZM2.63661 13.2933L2.02985 13.7341C2.28171 14.0808 2.58656 14.3856 2.93321 14.6375L3.37405 14.0307L3.81489 13.4239C3.59558 13.2646 3.40271 13.0717 3.24337 12.8524L2.63661 13.2933ZM3.37405 1.97059L2.93321 1.36383C2.58656 1.61569 2.28171 1.92054 2.02985 2.26719L2.63661 2.70803L3.24337 3.14887C3.40271 2.92956 3.59558 2.7367 3.81489 2.57736L3.37405 1.97059ZM8 1.33398V2.08398C9.26662 2.08398 10.1563 2.08501 10.841 2.1592C11.5117 2.23186 11.8962 2.36742 12.1851 2.57736L12.626 1.97059L13.0668 1.36383C12.4795 0.937156 11.8009 0.754414 11.0026 0.667924C10.2184 0.582955 9.2332 0.583984 8 0.583984V1.33398ZM14 7.33398H14.75C14.75 6.10078 14.751 5.11563 14.6661 4.33137C14.5796 3.53308 14.3968 2.85446 13.9702 2.26719L13.3634 2.70803L12.7566 3.14887C12.9666 3.43782 13.1021 3.82227 13.1748 4.49294C13.249 5.17765 13.25 6.06737 13.25 7.33398H14ZM12.626 1.97059L12.1851 2.57736C12.4044 2.7367 12.5973 2.92956 12.7566 3.14887L13.3634 2.70803L13.9702 2.26719C13.7183 1.92054 13.4134 1.61569 13.0668 1.36383L12.626 1.97059ZM8 1.33398V0.583984C7.22487 0.583984 6.5528 0.58389 5.97432 0.60371L6 1.35327L6.02568 2.10283C6.573 2.08408 7.21657 2.08398 8 2.08398V1.33398ZM6 1.35327L5.97432 0.60371C4.72227 0.646607 3.73534 0.781053 2.93321 1.36383L3.37405 1.97059L3.81489 2.57736C4.2189 2.28382 4.79215 2.14509 6.02568 2.10283L6 1.35327ZM6 1.35327L5.25 1.35326C5.25 1.98726 5.24728 2.22111 5.21819 2.40477L5.95896 2.5221L6.69973 2.63943C6.75186 2.31028 6.75 1.93229 6.75 1.35328L6 1.35327ZM2 7.33398H2.75C2.75 6.55055 2.75009 5.90698 2.76885 5.35966L2.01929 5.33398L1.26973 5.3083C1.24991 5.88678 1.25 6.55885 1.25 7.33398H2ZM2.01929 5.33398L2.76885 5.35966C2.81111 4.12613 2.94984 3.55289 3.24337 3.14887L2.63661 2.70803L2.02985 2.26719C1.44707 3.06932 1.31262 4.05625 1.26973 5.3083L2.01929 5.33398ZM2.01929 5.33398L2.01929 6.08398C2.59831 6.08398 2.97629 6.08584 3.30544 6.03371L3.18812 5.29295L3.07079 4.55218C2.88713 4.58127 2.65328 4.58398 2.01928 4.58398L2.01929 5.33398ZM8 6.00065H7.25V10.8007H8H8.75V6.00065H8ZM10.6667 9.20065L10.134 8.67269L9.20208 9.61294L9.73477 10.1409L10.2675 10.6689L11.1994 9.72861L10.6667 9.20065ZM6.26523 10.1409L6.79792 9.61294L5.86602 8.67269L5.33333 9.20065L4.80064 9.72861L5.73254 10.6689L6.26523 10.1409ZM9.73477 10.1409L9.20208 9.61294C8.81808 10.0004 8.57389 10.2451 8.37247 10.4069C8.18288 10.5592 8.10522 10.5752 8.07228 10.5794L8.16711 11.3234L8.26194 12.0674C8.68191 12.0138 9.01649 11.8135 9.31171 11.5764C9.5951 11.3489 9.90829 11.0312 10.2675 10.6689L9.73477 10.1409ZM6.26523 10.1409L5.73254 10.6689C6.09171 11.0312 6.4049 11.3489 6.68829 11.5764C6.98351 11.8135 7.31809 12.0138 7.73806 12.0674L7.83289 11.3234L7.92772 10.5794C7.89478 10.5752 7.81712 10.5592 7.62753 10.4069C7.42611 10.2451 7.18192 10.0004 6.79792 9.61294L6.26523 10.1409ZM8.16711 11.3234L8.07228 10.5794C8.04828 10.5825 8.02413 10.584 8 10.584V11.334V12.084C8.08749 12.084 8.17498 12.0784 8.26194 12.0674L8.16711 11.3234ZM8 11.334V10.584C7.97587 10.584 7.95173 10.5825 7.92772 10.5794L7.83289 11.3234L7.73806 12.0674C7.82502 12.0784 7.91251 12.084 8 12.084V11.334ZM8 10.8007H7.25V11.334H8H8.75V10.8007H8Z" fill="#868A92"/>
</svg>
