<svg width="20" height="20" viewBox="0 0 20 20" fill="none" xmlns="http://www.w3.org/2000/svg">
<path d="M6.66667 14.9173C7.08088 14.9173 7.41667 14.5815 7.41667 14.1673C7.41667 13.7531 7.08088 13.4173 6.66667 13.4173V14.1673V14.9173ZM13.3333 13.4173C12.9191 13.4173 12.5833 13.7531 12.5833 14.1673C12.5833 14.5815 12.9191 14.9173 13.3333 14.9173V14.1673V13.4173ZM13.3333 5.08398C12.9191 5.08398 12.5833 5.41977 12.5833 5.83398C12.5833 6.2482 12.9191 6.58398 13.3333 6.58398V5.83398V5.08398ZM6.66667 6.58398C7.08088 6.58398 7.41667 6.2482 7.41667 5.83398C7.41667 5.41977 7.08088 5.08398 6.66667 5.08398V5.83398V6.58398ZM6.66667 9.25065C6.25245 9.25065 5.91667 9.58644 5.91667 10.0007C5.91667 10.4149 6.25245 10.7507 6.66667 10.7507V10.0007V9.25065ZM13.3333 10.7507C13.7475 10.7507 14.0833 10.4149 14.0833 10.0007C14.0833 9.58644 13.7475 9.25065 13.3333 9.25065V10.0007V10.7507ZM6.66667 14.1673V13.4173C4.77969 13.4173 3.25 11.8876 3.25 10.0007H2.5H1.75C1.75 12.7161 3.95127 14.9173 6.66667 14.9173V14.1673ZM17.5 10.0007H16.75C16.75 11.8876 15.2203 13.4173 13.3333 13.4173V14.1673V14.9173C16.0487 14.9173 18.25 12.7161 18.25 10.0007H17.5ZM13.3333 5.83398V6.58398C15.2203 6.58398 16.75 8.11368 16.75 10.0007H17.5H18.25C18.25 7.28525 16.0487 5.08398 13.3333 5.08398V5.83398ZM6.66667 5.83398V5.08398C3.95127 5.08398 1.75 7.28525 1.75 10.0007H2.5H3.25C3.25 8.11368 4.77969 6.58398 6.66667 6.58398V5.83398ZM6.66667 10.0007V10.7507H13.3333V10.0007V9.25065H6.66667V10.0007Z" fill="#0DB1A0"/>
</svg>
