<svg width="20" height="20" viewBox="0 0 20 20" fill="none" xmlns="http://www.w3.org/2000/svg">
<path d="M17.3593 11.4011C17.3593 8.88385 15.3199 6.8457 12.8038 6.8457C10.288 6.8457 8.24924 8.88385 8.24924 11.4011C7.66895 11.4011 7.198 11.8719 7.198 12.4524V15.9564C7.198 16.5369 7.66895 17.0076 8.24924 17.0076H10.3517C10.5447 17.0076 10.7014 16.851 10.7014 16.6573V14.2044C10.7014 13.819 10.5611 13.2215 10.3887 12.8767L9.65096 11.4011C9.65096 9.65861 11.0615 8.24743 12.804 8.24743C14.5451 8.24743 15.9578 9.65861 15.9578 11.4011L15.22 12.8767C15.0476 13.2217 14.9065 13.819 14.9065 14.2044V16.7381C14.28 17.1429 13.5498 17.3582 12.8038 17.3581H12.1031V18.4093H12.8038C14.1461 18.4093 15.3609 17.8734 16.2532 17.0076H17.3593C17.6381 17.0076 17.9055 16.8969 18.1026 16.6997C18.2998 16.5026 18.4105 16.2352 18.4105 15.9564V12.4524C18.4105 12.1736 18.2998 11.9062 18.1026 11.709C17.9055 11.5119 17.6381 11.4011 17.3593 11.4011Z" fill="#868A92"/>
<path d="M12.8032 5.7948C13.0414 5.7948 13.2742 5.81456 13.5042 5.84337V2.99157C13.5042 2.2208 12.873 1.58984 12.1025 1.58984H2.99181C2.22083 1.58984 1.59009 2.2208 1.59009 2.99157V7.19652C1.59009 7.96729 2.22083 8.59824 2.99181 8.59824V10.7007L6.49601 8.59824H7.95618C8.9271 6.9253 10.7336 5.7948 12.8032 5.7948ZM10 4.39308C10.092 4.39299 10.1832 4.41106 10.2683 4.44625C10.3533 4.48144 10.4306 4.53305 10.4957 4.59814C10.5608 4.66323 10.6124 4.74051 10.6476 4.82557C10.6828 4.91062 10.7008 5.00179 10.7008 5.09383C10.7008 5.23243 10.6597 5.36791 10.5827 5.48315C10.5057 5.59839 10.3962 5.68821 10.2682 5.74125C10.1401 5.79429 9.99922 5.80816 9.86329 5.78112C9.72736 5.75409 9.60249 5.68734 9.50449 5.58934C9.40649 5.49134 9.33975 5.36648 9.31271 5.23054C9.28567 5.09461 9.29955 4.95371 9.35258 4.82567C9.40562 4.69762 9.49544 4.58818 9.61068 4.51118C9.72592 4.43418 9.8614 4.39308 10 4.39308ZM5.09429 5.7948C4.90841 5.7948 4.73014 5.72096 4.5987 5.58952C4.46727 5.45808 4.39343 5.27982 4.39343 5.09394C4.39343 4.90806 4.46727 4.72979 4.5987 4.59835C4.73014 4.46692 4.90841 4.39308 5.09429 4.39308C5.28017 4.39308 5.45843 4.46692 5.58987 4.59835C5.72131 4.72979 5.79515 4.90806 5.79515 5.09394C5.79515 5.27982 5.72131 5.45808 5.58987 5.58952C5.45843 5.72096 5.28017 5.7948 5.09429 5.7948ZM6.84628 5.09404C6.84628 4.90816 6.92012 4.7299 7.05156 4.59846C7.183 4.46702 7.36126 4.39318 7.54714 4.39318C7.73302 4.39318 7.91129 4.46702 8.04273 4.59846C8.17416 4.7299 8.248 4.90816 8.248 5.09404C8.248 5.27992 8.17416 5.45819 8.04273 5.58963C7.91129 5.72106 7.73302 5.7949 7.54714 5.7949C7.36126 5.7949 7.183 5.72106 7.05156 5.58963C6.92012 5.45819 6.84628 5.27992 6.84628 5.09404Z" fill="#868A92"/>
</svg>
